<svg width="417" height="119" viewBox="0 0 417 119" fill="none" xmlns="http://www.w3.org/2000/svg">
<path d="M349.316 89.3088C349.316 98.0191 346.456 104.98 340.737 110.191C335.018 115.403 327.905 118.009 319.398 118.009C310.891 118.009 303.778 115.422 298.059 110.247C292.34 105.073 289.481 98.2429 289.481 89.7555C289.481 82.2358 292.304 74.0841 297.952 65.299L316.289 36.8225H338.057L319.398 63.8473L319.076 64.4055C320.578 63.8099 322.365 63.5124 324.438 63.5124C331.301 63.5124 337.163 65.9321 342.024 70.771C346.885 75.6103 349.316 81.7894 349.316 89.3088ZM331.301 89.7555C331.301 86.182 330.211 83.2226 328.031 80.8774C325.85 78.5322 323.008 77.3595 319.505 77.3595C316.003 77.3595 313.125 78.5322 310.873 80.8774C308.622 83.2226 307.495 86.219 307.495 89.867C307.495 93.3665 308.604 96.3259 310.82 98.7452C313.036 101.165 315.896 102.374 319.398 102.374C322.901 102.374 325.761 101.202 327.977 98.857C330.193 96.5118 331.301 93.478 331.301 89.7555ZM416.55 89.7555C416.55 98.8385 413.69 105.818 407.971 110.694C402.252 115.57 395.354 118.009 387.276 118.009C380.27 118.009 374.158 116.204 368.939 112.593C363.721 108.982 360.218 104.087 358.431 97.9076L374.837 92.659C375.623 95.488 377.143 97.7772 379.394 99.5271C381.646 101.277 384.202 102.151 387.061 102.151C390.278 102.151 392.977 101.146 395.157 99.136C397.337 97.126 398.428 94.2966 398.428 90.6486C398.428 86.3309 396.926 83.2412 393.924 81.3801C390.921 79.5187 387.24 78.5878 382.879 78.5878C376.66 78.5878 370.476 79.7421 364.328 82.0498L366.151 36.8225H412.689V52.9033H382.129L381.485 65.4109C383.559 64.8897 386.096 64.6289 389.099 64.6289C397.105 64.6289 403.682 66.8066 408.829 71.1618C413.977 75.5169 416.55 81.715 416.55 89.7555Z" fill="#B2B3B3"/>
<path d="M101.282 56.4558C101.282 44.7638 109.688 35.1865 121.649 35.1865C128.927 35.1865 133.329 37.8292 137.109 41.589L132.651 46.9359C129.489 43.8817 126.107 41.8256 121.591 41.8256C114.031 41.8256 108.559 48.2864 108.559 56.4558C108.559 64.5047 114.031 71.0856 121.591 71.0856C126.445 71.0856 129.547 69.0299 132.931 65.7395L137.389 70.4397C133.271 74.9067 128.757 77.7251 121.367 77.7251C109.858 77.7251 101.282 68.3836 101.282 56.4558Z" fill="#0082C9"/>
<path d="M150.64 42.5878H138.115V35.8909H170.162V42.5878H157.638V77.0212H150.64V42.5878Z" fill="#0082C9"/>
<path d="M173.712 35.8909H180.538V65.9154L200.51 35.8909H206.998V77.0212H200.17V47.0545L180.254 77.0212H173.712V35.8909Z" fill="#0082C9"/>
<path d="M49.8998 47.585C49.8998 51.5921 46.7816 54.8417 42.9293 54.8417C39.0816 54.8417 35.9627 51.5921 35.9627 47.585C35.9627 43.5753 39.0816 40.323 42.9293 40.323C46.7816 40.323 49.8998 43.5753 49.8998 47.585ZM29.6501 33.4076C30.5153 31.8425 31.3997 30.3186 32.2943 28.8393C31.3486 28.7535 30.4206 28.7112 29.5158 28.7112C23.4442 28.7112 19.0398 30.675 17.4343 34.1049C16.7763 35.5068 16.597 37.0991 16.8489 38.8101C20.6265 36.8398 24.934 35.0128 29.6501 33.4076ZM34.9817 29.1745C34.3492 30.1962 33.7246 31.2348 33.1065 32.2953C34.9941 31.7223 36.9397 31.1856 38.9332 30.6879C40.5264 31.1191 42.1399 31.6475 43.756 32.2654C42.6161 32.5077 41.4721 32.7632 40.3242 33.0384C31.2596 35.2188 23.5447 38.1721 17.4982 41.3726C18.3695 43.8172 19.9711 46.4107 22.1562 48.9664C23.5926 45.4749 25.2269 41.8983 27.0589 38.2927L27.4178 37.5931C28.512 37.2 29.6272 36.8247 30.777 36.4535C30.2413 37.4445 29.7122 38.4491 29.1968 39.473C24.5983 48.5269 21.3955 57.035 19.4394 64.464C20.8036 64.5543 22.2361 64.6016 23.7306 64.6016C27.6508 64.6016 31.8639 64.2731 36.1975 63.6616C37.6426 64.3782 39.0979 65.0306 40.555 65.6122C34.6874 66.6709 28.9635 67.2265 23.7306 67.2265C10.2845 67.2265 1.80707 63.7644 0.455201 57.7289C-0.760935 52.2274 4.57722 45.8804 13.9986 40.385C14.155 41.2207 14.3876 42.0809 14.6906 42.9392C6.37257 47.8957 2.04188 53.2256 2.91215 57.1363C3.72581 60.8024 8.94493 63.363 16.9948 64.2535C18.0233 60.2786 19.3839 56.0629 21.0635 51.7058C15.1548 45.2447 12.6812 38.2734 15.1733 32.9545C17.2445 28.526 22.3373 26.0923 29.5158 26.0923C34.3513 26.0923 39.7802 27.219 45.2254 29.3099C51.5264 28.1099 57.6848 27.4681 63.2864 27.4681C65.0135 27.4681 66.6604 27.524 68.2184 27.6378C71.215 14.7247 70.2014 5.51433 65.9386 3.16648C65.1601 2.73486 64.259 2.51603 63.2701 2.51603C56.4951 2.51603 46.1549 12.0934 36.8638 26.2318C35.9627 26.0474 35.0706 25.9011 34.1924 25.7851C44.2027 10.142 55.3494 0 63.2701 0C64.6611 0 65.9386 0.315967 67.0727 0.938077C72.7135 4.04182 73.7279 14.3664 70.6507 27.8672C79.8039 28.9361 85.4821 32.1214 86.5559 36.9706C87.6127 41.7097 83.9378 47.1704 76.2153 52.3412C75.0529 53.1137 73.8201 53.8756 72.5219 54.61C73.0536 57.205 72.8351 59.6217 71.8396 61.7469C69.7703 66.164 64.6774 68.6026 57.4989 68.6026C56.4272 68.6026 55.3203 68.5255 54.1949 68.4178C54.7037 67.5957 55.2053 66.7627 55.7076 65.9127C56.3118 65.9494 56.9157 65.9815 57.4989 65.9815C63.5749 65.9815 67.9771 64.0157 69.5808 60.5919C71.1661 57.2175 70.0693 52.6545 66.5076 47.7411C65.9966 47.0374 65.4447 46.3419 64.8527 45.6548C63.4022 49.2246 61.7632 52.848 59.9581 56.4064L59.2054 57.8661C62.7133 56.5671 66.0072 55.1271 68.9954 53.5756C69.325 54.4528 69.5605 55.3096 69.6984 56.1316C63.2595 59.4202 55.5388 62.2167 47.2556 64.2066L46.79 64.3181C48.5704 64.8336 50.3284 65.2343 52.0392 65.5094C52.4965 64.769 52.9541 64.0176 53.4034 63.2602C54.5945 62.8864 55.7638 62.4983 56.9117 62.0923C45.9672 81.5497 32.7665 94.6927 23.7469 94.6927C22.3576 94.6927 21.0798 94.3812 19.9442 93.7587C14.4787 90.7434 13.3533 80.9529 16.0922 68.0553C16.8816 68.1324 17.696 68.1944 18.5285 68.2352C15.8658 80.5323 16.9436 89.249 21.0758 91.5307C21.8554 91.9559 22.7554 92.1766 23.7469 92.1766C30.6166 92.1766 41.1444 82.3397 50.5306 67.8879C45.8827 67.0099 40.9855 65.325 36.2204 62.9034C31.2433 60.3753 26.913 57.3468 23.4486 54.1073C23.7763 53.2362 24.1345 52.3521 24.493 51.4613C27.9125 54.8179 32.2961 57.9972 37.3236 60.5488C38.8816 61.3391 40.4538 62.0493 42.0241 62.6759C43.5723 62.3735 45.1307 62.0322 46.6905 61.6585C49.824 60.901 52.8699 60.0317 55.7947 59.0661C56.4828 57.8079 57.1589 56.5289 57.8183 55.2306C59.7886 51.3494 61.5302 47.4493 63.0309 43.6804C59.4714 40.0762 54.8816 36.7812 49.6893 34.1439C44.7656 31.6407 39.6997 29.9407 34.9817 29.1745ZM71.7718 52.0471C72.8496 51.4224 73.8803 50.7848 74.8529 50.1347C81.5204 45.6745 84.8927 41.0914 84.1033 37.5583C83.0824 32.9545 75.1044 30.0911 63.2864 30.0911C59.0072 30.0911 54.3804 30.4732 49.6175 31.2049L50.794 31.7911C55.8665 34.3672 60.403 37.5564 64.0405 41.0661C65.3949 37.4487 66.5182 33.9866 67.3917 30.8315C68.233 30.9044 69.047 30.9861 69.8345 31.0911C68.8241 34.7894 67.5009 38.8226 65.9077 42.9827C66.8582 44.0213 67.7299 45.086 68.5113 46.1635C69.9666 48.164 71.0543 50.1407 71.7718 52.0471Z" fill="#005AA5"/>
<path d="M194.087 107.989L186.023 97.3735H184.215V118.295H187.319V103.414L194.087 112.257L200.831 103.414V118.295H203.929V97.3735H202.15L194.087 107.989Z" fill="#005AA5"/>
<path d="M210.468 112.141V97.3735H207.364V118.295H209.174L219.79 103.538V118.295H222.89V97.3735H221.081L210.468 112.141Z" fill="#005AA5"/>
<path d="M271.078 97.3735L260.468 112.143V97.3735H257.361V118.295H259.173L269.79 103.538V118.295H272.889V97.3735H271.078Z" fill="#005AA5"/>
<path d="M247.215 98.1181C244.837 98.1181 242.765 99.4107 241.679 101.231V97.3735H238.579V106.757C238.579 109.986 236.285 112.317 233.356 112.317C230.427 112.317 228.13 109.986 228.13 106.757C228.13 103.538 230.427 101.173 233.356 101.173C234.9 101.173 236.257 101.842 237.211 102.933V99.6681C236.094 98.7126 234.647 98.1181 233.041 98.1181C228.245 98.1181 225.003 101.948 225.003 106.757C225.003 111.566 228.245 115.363 233.041 115.363C235.422 115.363 237.487 114.105 238.579 112.289V118.295L241.72 118.306V106.345L241.722 106.339C241.919 103.334 244.132 101.173 246.929 101.173C249.858 101.173 252.151 103.538 252.151 106.757C252.151 109.986 249.858 112.317 246.929 112.317C245.403 112.317 244.066 111.675 243.114 110.608V113.925C244.208 114.816 245.632 115.363 247.215 115.363C251.984 115.363 255.224 111.566 255.224 106.757C255.224 101.948 251.984 98.1181 247.215 98.1181Z" fill="#005AA5"/>
<path d="M125.357 112.143V97.3735H122.259V118.297H124.065L134.681 103.54V118.297H137.781V97.3735H135.976L125.357 112.143Z" fill="#005AA5"/>
<path d="M115.682 104.766H105.47V97.3735H102.37V118.297H105.47V107.994H115.682V118.297H118.78V97.3735H115.682V104.766Z" fill="#005AA5"/>
<path d="M170.313 105.854C169.6 107.342 167.757 106.992 167.438 106.971C165.805 106.874 164.387 105.476 163.613 103.379C163.544 103.201 163.485 103.019 161.947 97.3755H158.677C160.212 103.027 160.535 104.117 160.597 104.304C161.892 108.25 164.971 110.606 169.182 109.595L168.1 113.174C167.37 115.386 164.874 116.14 162.134 115.348L161.228 118.462C165.539 119.823 169.798 118.314 171.156 113.296L175.97 97.3755H172.871L170.313 105.854Z" fill="#005AA5"/>
<path d="M153.307 97.3735H148.142H148.072V97.3819C143.511 97.4208 140.428 101.078 140.428 105.671C140.428 108.517 141.617 110.986 143.6 112.467C144.084 112.828 144.614 113.12 145.184 113.353C145.056 113.893 144.871 114.438 144.599 114.985C144.531 115.129 144.43 115.305 142.6 118.297H146.324C146.998 117.181 147.212 116.814 147.264 116.717C147.763 115.803 148.109 114.867 148.297 113.934H153.307V118.297H156.407V97.3735H154.857H153.307ZM143.428 105.671C143.428 102.576 145.638 100.306 148.449 100.306H153.307V111.006H148.408C145.617 110.982 143.428 108.758 143.428 105.671Z" fill="#005AA5"/>
</svg>
